<svg width="14" height="14" viewBox="0 0 14 14" fill="none" xmlns="http://www.w3.org/2000/svg">
<path d="M8.75006 7.55416H4.66672C4.42756 7.55416 4.22922 7.35583 4.22922 7.11666C4.22922 6.87749 4.42756 6.67916 4.66672 6.67916H8.75006C8.98923 6.67916 9.18756 6.87749 9.18756 7.11666C9.18756 7.35583 8.98923 7.55416 8.75006 7.55416Z" fill="white"/>
<path d="M7.22173 9.88749H4.66672C4.42756 9.88749 4.22922 9.68916 4.22922 9.44999C4.22922 9.21082 4.42756 9.01249 4.66672 9.01249H7.22173C7.46089 9.01249 7.65923 9.21082 7.65923 9.44999C7.65923 9.68916 7.46089 9.88749 7.22173 9.88749Z" fill="white"/>
<path d="M8.16673 3.93749H5.83339C5.27339 3.93749 4.22922 3.93749 4.22922 2.33332C4.22922 0.729151 5.27339 0.729151 5.83339 0.729151H8.16673C8.72673 0.729151 9.7709 0.729151 9.7709 2.33332C9.7709 2.89332 9.7709 3.93749 8.16673 3.93749ZM5.83339 1.60415C5.25589 1.60415 5.10422 1.60415 5.10422 2.33332C5.10422 3.06249 5.25589 3.06249 5.83339 3.06249H8.16673C8.89589 3.06249 8.89589 2.91082 8.89589 2.33332C8.89589 1.60415 8.74423 1.60415 8.16673 1.60415H5.83339Z" fill="white"/>
<path d="M8.75 13.2708H5.24999C1.97166 13.2708 1.31249 11.7658 1.31249 9.33333V5.83333C1.31249 3.17333 2.27499 2.03583 4.64333 1.91333C4.87666 1.90166 5.09249 2.08249 5.10416 2.32749C5.11583 2.57249 4.92916 2.77083 4.68999 2.78249C3.03333 2.87583 2.18749 3.37166 2.18749 5.83333V9.33333C2.18749 11.4917 2.61333 12.3958 5.24999 12.3958H8.75C11.3867 12.3958 11.8125 11.4917 11.8125 9.33333V5.83333C11.8125 3.37166 10.9667 2.87583 9.31 2.78249C9.07083 2.77083 8.88416 2.56083 8.89583 2.32166C8.9075 2.08249 9.1175 1.89583 9.35667 1.90749C11.725 2.03583 12.6875 3.17333 12.6875 5.8275V9.3275C12.6875 11.7658 12.0283 13.2708 8.75 13.2708Z" fill="white"/>
</svg>
