<svg width="14" height="14" viewBox="0 0 14 14" fill="none" xmlns="http://www.w3.org/2000/svg">
<path d="M9.63667 3.29584L7.82833 1.89584C7.595 1.66251 7.07 1.54584 6.72 1.54584H4.50333C3.80333 1.54584 3.04499 2.07084 2.86999 2.77084L1.46999 7.02918C1.17832 7.84585 1.70332 8.54585 2.57833 8.54585H4.91166C5.26166 8.54585 5.55333 8.83751 5.495 9.24585L5.20333 11.1125C5.08666 11.6375 5.43666 12.2209 5.96166 12.3959C6.42833 12.5709 7.01166 12.3375 7.245 11.9875L9.63667 8.42918" stroke="white" stroke-width="0.826667" stroke-miterlimit="10"/>
<path d="M12.6116 3.29582V9.01249C12.6116 9.82916 12.2616 10.1208 11.445 10.1208H10.8616C10.045 10.1208 9.69496 9.82916 9.69496 9.01249V3.29582C9.69496 2.47915 10.045 2.18748 10.8616 2.18748H11.445C12.2616 2.18748 12.6116 2.47915 12.6116 3.29582Z" stroke="white" stroke-width="0.826667" stroke-linecap="round" stroke-linejoin="round"/>
</svg>
