<svg width="14" height="14" viewBox="0 0 14 14" fill="none" xmlns="http://www.w3.org/2000/svg">
<path d="M4.36334 10.7042L6.17168 12.1042C6.40501 12.3375 6.93001 12.4542 7.28001 12.4542H9.49668C10.1967 12.4542 10.955 11.9292 11.13 11.2292L12.53 6.97083C12.8217 6.15416 12.2967 5.45416 11.4217 5.45416H9.08835C8.73835 5.45416 8.44668 5.16249 8.50501 4.75416L8.79668 2.88749C8.91335 2.36249 8.56334 1.77916 8.03834 1.60416C7.57168 1.42916 6.98834 1.66249 6.75501 2.01249L4.36334 5.57083" stroke="white" stroke-width="0.826667" stroke-miterlimit="10"/>
<path d="M1.38821 10.7042V4.9875C1.38821 4.17083 1.73821 3.87917 2.55487 3.87917H3.13821C3.95488 3.87917 4.30488 4.17083 4.30488 4.9875V10.7042C4.30488 11.5208 3.95488 11.8125 3.13821 11.8125H2.55487C1.73821 11.8125 1.38821 11.5208 1.38821 10.7042Z" stroke="white" stroke-width="0.826667" stroke-linecap="round" stroke-linejoin="round"/>
</svg>
